<?xml version="1.0" encoding="utf-8"?>
<!-- Generator: Adobe Illustrator 23.0.1, SVG Export Plug-In . SVG Version: 6.00 Build 0)  -->
<svg version="1.1" id="Layer_1" xmlns="http://www.w3.org/2000/svg" xmlns:xlink="http://www.w3.org/1999/xlink" x="0px" y="0px"
	 viewBox="0 0 512 512" style="enable-background:new 0 0 512 512;" xml:space="preserve">
<style type="text/css">
	.st0{fill:#010101;}
</style>
<g>
	<path class="st0" d="M325.5,316.9c-4.8,0-8.7,3.9-8.7,8.7v87c0,14.4-11.7,26-26,26H99.5c-14.4,0-26.1-11.7-26.1-26v-313
		c0-14.4,11.7-26.1,26.1-26.1h191.3c14.4,0,26,11.7,26,26.1v87c0,4.8,3.9,8.7,8.7,8.7c4.8,0,8.7-3.9,8.7-8.7v-87
		c0-24-19.5-43.5-43.5-43.5H99.5C75.5,56,56,75.5,56,99.5v313c0,24,19.5,43.5,43.5,43.5h191.3c24,0,43.5-19.5,43.5-43.5v-87
		C334.2,320.8,330.4,316.9,325.5,316.9z"/>
	<path class="st0" d="M454.6,260.8c0-0.1,0.1-0.1,0.1-0.2c0.1-0.2,0.3-0.4,0.3-0.6c0-0.1,0.1-0.2,0.1-0.2c0.1-0.2,0.2-0.3,0.3-0.6
		c0-0.1,0.1-0.2,0.1-0.3c0.1-0.2,0.2-0.3,0.2-0.6c0-0.1,0.1-0.2,0.1-0.3c0.1-0.2,0.1-0.3,0.2-0.6c0-0.1,0-0.3,0.1-0.3
		c0-0.2,0.1-0.3,0.1-0.5c0-0.3,0-0.4,0-0.7c0-0.1,0-0.2,0-0.2c0-0.1,0-0.2,0-0.2c0-0.3,0-0.4,0-0.7c0-0.2-0.1-0.3-0.1-0.5
		c0-0.1,0-0.3-0.1-0.3c0-0.2-0.1-0.3-0.2-0.6c0-0.1-0.1-0.2-0.1-0.3c-0.1-0.2-0.2-0.3-0.2-0.6c0-0.1-0.1-0.2-0.1-0.3
		c-0.1-0.2-0.2-0.4-0.3-0.6c0-0.1-0.1-0.2-0.1-0.2c-0.1-0.2-0.3-0.4-0.3-0.6c0-0.1-0.1-0.1-0.1-0.2c-0.3-0.5-0.8-1-1.2-1.4
		l-69.5-69.5c-3.4-3.4-8.9-3.4-12.3,0c-3.4,3.4-3.4,8.9,0,12.3l54.8,54.8H221.2c-4.8,0-8.7,3.9-8.7,8.7c0,4.8,3.9,8.7,8.7,8.7h205.1
		l-54.7,54.9c-3.4,3.4-3.4,8.9,0,12.3c1.7,1.7,3.9,2.6,6.2,2.6s4.4-0.8,6.2-2.6l69.5-69.5C453.8,261.8,454.2,261.3,454.6,260.8z"/>
</g>
</svg>
