<?xml version="1.0" encoding="UTF-8"?>
<svg xmlns="http://www.w3.org/2000/svg" xmlns:xlink="http://www.w3.org/1999/xlink" width="512pt" height="512pt" viewBox="0 0 512 512" version="1.1">
<g id="surface1">
<path style=" stroke:none;fill-rule:nonzero;fill:rgb(23.899841%,9.799194%,35.699463%);fill-opacity:1;" d="M 211.054688 254.5625 L 211.054688 192.75 L 230.644531 192.75 C 243.402344 192.75 252.96875 200.34375 252.96875 213.40625 C 252.96875 226.617188 243.554688 234.363281 230.644531 234.363281 L 223.050781 234.363281 L 223.050781 254.5625 Z M 223.050781 222.820313 L 230.039063 222.820313 C 236.117188 222.820313 240.519531 219.480469 240.519531 213.40625 C 240.519531 207.324219 236.117188 204.140625 230.039063 204.140625 L 223.050781 204.140625 Z M 413.949219 322.445313 C 404.992188 322.445313 394.058594 317.585938 394.058594 302.398438 L 394.058594 280.679688 L 405.292969 280.679688 L 405.292969 301.636719 C 405.292969 308.621094 408.484375 311.660156 413.949219 311.660156 C 418.960938 311.660156 422.609375 308.167969 422.609375 301.636719 L 422.609375 280.679688 L 433.847656 280.679688 L 433.847656 302.398438 C 433.847656 317.585938 422.757813 322.445313 413.949219 322.445313 M 317.210938 322.445313 C 306.425781 322.445313 297.011719 312.574219 297.011719 301.03125 C 297.011719 289.640625 306.425781 280.074219 317.210938 280.074219 C 323.285156 280.074219 327.382813 282.199219 329.816406 285.996094 L 331.03125 280.679688 L 340.902344 280.679688 L 340.902344 321.378906 L 331.03125 321.378906 L 329.816406 316.214844 C 327.382813 319.863281 322.832031 322.445313 317.210938 322.445313 M 319.488281 290.25 C 313.410156 290.25 308.859375 294.804688 308.859375 301.03125 C 308.859375 306.953125 313.410156 311.660156 319.488281 311.660156 C 325.410156 311.660156 329.964844 306.953125 329.964844 301.03125 C 329.964844 294.804688 325.410156 290.25 319.488281 290.25 M 393.144531 213.859375 L 404.382813 213.859375 L 404.382813 254.558594 L 393.144531 254.558594 Z M 398.914063 208.394531 C 394.96875 208.394531 391.929688 205.355469 391.929688 201.558594 C 391.929688 197.609375 394.96875 194.574219 398.914063 194.574219 C 402.863281 194.574219 405.902344 197.609375 405.902344 201.558594 C 405.902344 205.351563 402.863281 208.394531 398.914063 208.394531 M 376.289063 230.566406 C 376.289063 226.160156 373.859375 223.425781 370.058594 223.425781 C 365.65625 223.425781 363.378906 226.160156 363.378906 230.71875 L 363.378906 254.558594 L 352.140625 254.558594 L 352.140625 230.566406 C 352.140625 226.160156 349.710938 223.425781 345.914063 223.425781 C 341.511719 223.425781 339.230469 226.160156 339.230469 230.71875 L 339.230469 254.558594 L 327.992188 254.558594 L 327.992188 213.859375 L 337.867188 213.859375 L 339.082031 219.175781 C 339.082031 219.175781 341.511719 212.796875 349.105469 212.796875 C 353.816406 212.796875 357.761719 214.769531 360.496094 218.875 L 360.800781 219.328125 L 361.105469 218.875 C 365.058594 213.253906 369.917969 212.796875 372.953125 212.796875 C 381.609375 212.796875 387.53125 219.328125 387.53125 228.589844 L 387.53125 254.5625 L 376.292969 254.5625 L 376.292969 230.566406 Z M 454.804688 254.5625 L 454.804688 213.859375 L 464.523438 213.859375 L 465.738281 219.78125 C 467.5625 215.984375 471.203125 213.40625 476.066406 213.40625 C 477.128906 213.40625 478.1875 213.554688 479.257813 213.859375 L 479.257813 224.640625 C 477.886719 224.335938 476.675781 224.183594 475.304688 224.183594 C 469.839844 224.183594 466.046875 227.527344 466.046875 234.054688 L 466.046875 254.558594 L 454.804688 254.558594 Z M 256.765625 254.5625 L 256.765625 213.859375 L 266.484375 213.859375 L 267.703125 219.78125 C 269.523438 215.984375 273.167969 213.40625 278.03125 213.40625 C 279.09375 213.40625 280.15625 213.554688 281.21875 213.859375 L 281.21875 224.640625 C 279.847656 224.335938 278.640625 224.183594 277.269531 224.183594 C 271.804688 224.183594 268.007813 227.527344 268.007813 234.054688 L 268.007813 254.558594 L 256.765625 254.558594 Z M 211.054688 321.382813 L 211.054688 261.089844 L 223.050781 261.089844 L 223.050781 309.992188 L 249.171875 309.992188 L 249.171875 321.382813 Z M 273.472656 322.445313 C 260.867188 322.445313 251.601563 313.789063 251.601563 301.183594 C 251.601563 289.789063 259.953125 279.617188 273.164063 279.617188 C 283.039063 279.617188 293.214844 287.058594 293.214844 300.878906 C 293.214844 301.941406 293.214844 303.308594 292.910156 304.824219 L 263.140625 304.824219 C 264.207031 309.382813 268.308594 312.417969 273.320313 312.417969 C 277.875 312.417969 281.367188 310.75 284.257813 307.710938 L 291.085938 314.699219 C 286.683594 319.710938 280.308594 322.445313 273.472656 322.445313 M 272.863281 289.492188 C 268.15625 289.492188 264.207031 292.226563 263.296875 296.628906 L 282.128906 296.628906 C 281.21875 292.375 277.421875 289.492188 272.863281 289.492188 M 459.664063 322.445313 C 447.054688 322.445313 437.792969 313.789063 437.792969 301.183594 C 437.792969 289.789063 446.148438 279.617188 459.359375 279.617188 C 469.230469 279.617188 479.410156 287.058594 479.410156 300.878906 C 479.410156 301.941406 479.410156 303.308594 479.101563 304.824219 L 449.335938 304.824219 C 450.398438 309.382813 454.5 312.417969 459.511719 312.417969 C 464.066406 312.417969 467.5625 310.75 470.449219 307.710938 L 477.28125 314.699219 C 472.875 319.710938 466.5 322.445313 459.664063 322.445313 M 459.054688 289.492188 C 454.347656 289.492188 450.398438 292.226563 449.488281 296.628906 L 468.320313 296.628906 C 467.410156 292.375 463.609375 289.492188 459.054688 289.492188 M 430.65625 255.625 C 418.054688 255.625 408.789063 246.96875 408.789063 234.363281 C 408.789063 222.96875 417.140625 212.796875 430.355469 212.796875 C 440.226563 212.796875 450.402344 220.238281 450.402344 234.058594 C 450.402344 235.121094 450.402344 236.488281 450.097656 238.003906 L 420.332031 238.003906 C 421.394531 242.5625 425.496094 245.605469 430.507813 245.605469 C 435.058594 245.605469 438.554688 243.933594 441.441406 240.890625 L 448.273438 247.875 C 443.871094 252.890625 437.488281 255.625 430.65625 255.625 M 430.046875 222.667969 C 425.339844 222.667969 421.394531 225.402344 420.480469 229.808594 L 439.3125 229.808594 C 438.402344 225.554688 434.601563 222.667969 430.046875 222.667969 M 303.847656 255.625 C 291.242188 255.625 281.976563 246.96875 281.976563 234.363281 C 281.976563 222.96875 290.332031 212.796875 303.542969 212.796875 C 313.414063 212.796875 323.589844 220.238281 323.589844 234.058594 C 323.589844 235.121094 323.589844 236.488281 323.289063 238.003906 L 293.519531 238.003906 C 294.582031 242.5625 298.683594 245.605469 303.695313 245.605469 C 308.25 245.605469 311.746094 243.933594 314.632813 240.890625 L 321.464844 247.875 C 317.0625 252.890625 310.683594 255.625 303.847656 255.625 M 303.238281 222.667969 C 298.53125 222.667969 294.578125 225.402344 293.671875 229.808594 L 312.5 229.808594 C 311.589844 225.554688 307.796875 222.667969 303.238281 222.667969 M 367.480469 290.25 C 361.558594 290.25 356.847656 294.804688 356.847656 301.03125 C 356.847656 306.953125 361.558594 311.660156 367.480469 311.660156 C 373.402344 311.660156 378.109375 306.953125 378.109375 301.03125 C 378.109375 294.804688 373.402344 290.25 367.480469 290.25 M 377.5 285.84375 L 378.714844 280.683594 L 388.589844 280.683594 L 388.589844 319.5625 C 388.589844 327.15625 386.464844 332.46875 381.453125 336.417969 C 377.65625 339.304688 372.488281 341.429688 366.265625 341.429688 C 357.757813 341.429688 351.683594 338.542969 346.824219 333.835938 L 353.054688 325.179688 C 356.089844 328.066406 360.191406 330.648438 365.503906 330.648438 C 373.859375 330.648438 377.5 326.546875 377.5 320.46875 L 377.5 317.585938 C 374.164063 321.078125 370.214844 322.445313 365.808594 322.445313 C 354.265625 322.445313 345.15625 313.027344 345.15625 301.03125 C 345.15625 289.183594 354.574219 280.074219 366.113281 280.074219 C 370.820313 280.074219 375.070313 282.351563 377.5 285.84375 "/>
<path style=" stroke:none;fill-rule:nonzero;fill:rgb(23.899841%,9.799194%,35.699463%);fill-opacity:1;" d="M 66.210938 177.003906 C 74.660156 180.78125 80.089844 185.546875 81.078125 186.277344 C 80.632813 184.148438 78.96875 173.894531 78.007813 167.527344 C 82.933594 170.859375 94.363281 178.597656 98.125 181.113281 C 99.65625 176.507813 104.96875 161.464844 104.96875 161.464844 C 104.96875 161.464844 114.566406 176.621094 116.207031 179.082031 C 118.210938 177.035156 129.679688 164.582031 132.648438 161.433594 C 133.144531 168.597656 133.820313 178.84375 133.992188 180.382813 C 134.566406 179.625 138.957031 173.617188 146.316406 168.085938 C 143.128906 174.214844 141.605469 182.675781 140.929688 189.472656 C 133.6875 187.503906 126.042969 186.445313 118.171875 186.445313 C 103.050781 186.445313 88.847656 190.324219 76.570313 197.136719 C 74.339844 190.570313 70.84375 182.398438 66.210938 177.003906 M 181.96875 306.25 L 175.304688 299.054688 C 173.402344 318.5 163.640625 335.015625 145.707031 346.535156 L 142.964844 336.042969 C 127.742188 346.769531 101.617188 353.730469 79.171875 341.347656 C 81.960938 327.476563 84.4375 313.421875 79.125 296.59375 C 66.699219 315.367188 55.703125 322.726563 55.703125 322.726563 C 47.304688 308.96875 48.058594 281.375 50.566406 273.25 L 36.589844 277.476563 C 36.589844 268.203125 43.433594 248.53125 53.34375 237.480469 L 44.617188 236.117188 L 44.609375 236.117188 C 50.539063 224.292969 59.394531 214.101563 70.226563 206.445313 L 70.242188 206.4375 C 66.988281 211.449219 66.941406 223.816406 76.46875 228.523438 C 72.425781 221.601563 71.9375 213.050781 76.164063 208.621094 C 80.390625 204.152344 87.496094 205.6875 92.039063 209.148438 C 90.6875 205.289063 86.730469 200.429688 80.796875 200.101563 L 80.789063 200.101563 C 91.992188 194.476563 104.707031 191.3125 118.164063 191.3125 C 120.679688 191.3125 123.183594 191.417969 125.636719 191.632813 C 129.546875 193.164063 135.289063 198.542969 137.96875 201.894531 C 137.96875 201.894531 138.15625 197.945313 135.910156 193.179688 C 150.480469 196.644531 157.433594 202.429688 160.347656 205.21875 C 160.945313 211.363281 162.828125 215.050781 165.320313 220.890625 C 160.597656 215.734375 148.738281 207.410156 143.074219 205.417969 C 143.074219 205.417969 142.609375 210.742188 140.660156 213.304688 C 129.382813 205.363281 123.84375 203.363281 123.84375 203.363281 C 111.464844 205.097656 103.5 209.753906 99.171875 213.417969 L 102.941406 216.554688 C 95.480469 218.789063 90.632813 225.042969 90.632813 225.042969 C 90.6875 225.160156 97.300781 226.078125 97.300781 226.078125 C 97.300781 226.078125 96.625 233.65625 106.351563 238.40625 C 114.683594 242.476563 126.664063 237.425781 137.945313 241.839844 C 130.527344 233.488281 125.398438 229.753906 125.398438 229.753906 C 125.398438 229.753906 122.453125 229.15625 120.378906 229.171875 C 117.785156 229.1875 113.921875 229.6875 109.6875 228.078125 C 107.660156 227.304688 105.296875 225.941406 103.445313 224.804688 C 103.445313 224.804688 108.652344 219.585938 116.261719 218.4375 C 116.261719 218.4375 123.128906 220.324219 128.566406 224.246094 C 132.179688 220.8125 135.949219 220.921875 135.949219 220.921875 C 135.949219 220.921875 132.210938 224.324219 133.339844 228.445313 C 138.769531 233.164063 144.660156 239.925781 144.660156 239.925781 C 150.660156 236.722656 163.710938 237.457031 166.386719 240.492188 C 162.992188 236.191406 158.101563 232.605469 154.3125 229.542969 C 153.851563 227.933594 149.71875 222.324219 149.019531 221.800781 C 149.019531 221.800781 152.945313 222.980469 156.460938 226.054688 C 157.464844 224.652344 159.347656 223.226563 161.917969 222.597656 C 164.558594 224.761719 165.027344 228.078125 164.957031 228.628906 C 163.773438 230.015625 162.59375 230.582031 162.59375 230.582031 L 168.957031 237.304688 L 169.59375 232.484375 C 184.25 252.90625 192.238281 276.539063 181.964844 306.246094 M 154.355469 262.308594 L 154.339844 251.757813 C 154.339844 251.757813 149.507813 250.246094 144.355469 246.347656 C 134.003906 247.871094 121.464844 258.035156 121.464844 258.035156 C 121.464844 258.035156 125.699219 265.871094 130.335938 274.332031 C 138.480469 275.445313 150.484375 265.40625 154.355469 262.308594 M 164.769531 281.4375 C 164.769531 281.4375 163.9375 277.066406 160.394531 272.992188 L 152.3125 273.183594 C 152.3125 273.183594 141.417969 282.316406 134.773438 282.53125 C 134.773438 282.53125 138.433594 289.175781 140.285156 292.648438 C 143.9375 291.867188 150.371094 289.054688 152.964844 286.109375 C 152.964844 286.109375 154.675781 291.496094 154.355469 297.859375 C 157.992188 295.804688 163.003906 290.226563 164.769531 281.4375 M 168.085938 246.769531 C 164.007813 250.109375 160.554688 251.972656 160.554688 251.972656 L 160.601563 262.5625 C 163.515625 265.734375 166.390625 268.363281 168.542969 273.152344 C 172.625 265.980469 171.839844 255.4375 168.085938 246.769531 "/>
</g>
</svg>
